<?xml version="1.0"?><svg width="1024" height="1024" viewBox="0 0 1024 1024" xmlns="http://www.w3.org/2000/svg">
<defs>
  <linearGradient id="dusk" x1="0" y1="0" x2="0" y2="1">
    <stop offset="0" stop-color="#16275C"/><stop offset="0.26" stop-color="#3F6BCD"/>
    <stop offset="0.385" stop-color="#E8865A"/>
  </linearGradient>
</defs>
<rect width="1024" height="1024" fill="url(#dusk)"/>
<rect y="394" width="1024" height="10" fill="#FFC76B" fill-opacity="0.5"/>
<rect y="402" width="1024" height="622" fill="#27335A"/>
<polygon points="212,1024 812,1024 552,408 472,408" fill="#39466A"/>
<line x1="227" y1="1024" x2="477" y2="412" stroke="#FFFFFF" stroke-opacity="0.35" stroke-width="10"/>
<line x1="797" y1="1024" x2="547" y2="412" stroke="#FFFFFF" stroke-opacity="0.35" stroke-width="10"/>
<g fill="#FFFFFF" fill-opacity="0.92">
  <rect x="503" y="772" width="18" height="56" rx="5"/>
  <rect x="505" y="676" width="14" height="45" rx="4"/>
  <rect x="506" y="598" width="11" height="36" rx="3"/>
  <rect x="508" y="536" width="8" height="28" rx="2"/>
  <rect x="509" y="488" width="6" height="21" rx="2"/>
</g>
<text x="512" y="938" font-family="sans-serif" font-weight="700" font-size="116"
      text-anchor="middle" fill="#FFFFFF" fill-opacity="0.95">27</text>
<rect x="350" y="958" width="36" height="54" rx="6" fill="#FFFFFF" fill-opacity="0.85"/><rect x="412" y="958" width="36" height="54" rx="6" fill="#FFFFFF" fill-opacity="0.85"/><rect x="474" y="958" width="36" height="54" rx="6" fill="#FFFFFF" fill-opacity="0.85"/><rect x="536" y="958" width="36" height="54" rx="6" fill="#FFFFFF" fill-opacity="0.85"/><rect x="598" y="958" width="36" height="54" rx="6" fill="#FFFFFF" fill-opacity="0.85"/><rect x="660" y="958" width="36" height="54" rx="6" fill="#FFFFFF" fill-opacity="0.85"/>
<circle cx="262" cy="952" r="11" fill="#FFC76B" fill-opacity="0.95"/><circle cx="762" cy="952" r="11" fill="#FFC76B" fill-opacity="0.95"/><circle cx="310" cy="836" r="9" fill="#FFC76B" fill-opacity="0.95"/><circle cx="714" cy="836" r="9" fill="#FFC76B" fill-opacity="0.95"/><circle cx="352" cy="732" r="8" fill="#FFC76B" fill-opacity="0.95"/><circle cx="672" cy="732" r="8" fill="#FFC76B" fill-opacity="0.95"/><circle cx="388" cy="644" r="6" fill="#FFC76B" fill-opacity="0.95"/><circle cx="636" cy="644" r="6" fill="#FFC76B" fill-opacity="0.95"/><circle cx="418" cy="570" r="5" fill="#FFC76B" fill-opacity="0.95"/><circle cx="606" cy="570" r="5" fill="#FFC76B" fill-opacity="0.95"/><circle cx="443" cy="510" r="4" fill="#FFC76B" fill-opacity="0.95"/><circle cx="581" cy="510" r="4" fill="#FFC76B" fill-opacity="0.95"/>
</svg>