<?xml version="1.0"?><svg width="1024" height="1024" viewBox="0 0 1024 1024" xmlns="http://www.w3.org/2000/svg"><defs><linearGradient id="sky" x1="0" y1="0" x2="0.22" y2="1"><stop offset="0" stop-color="#68CCF7"/><stop offset="0.55" stop-color="#2E7BE5"/><stop offset="1" stop-color="#1D4AAE"/></linearGradient></defs>
<rect width="1024" height="1024" fill="url(#sky)"/>
<g stroke="#FFFFFF" stroke-width="26" stroke-linecap="round" fill="none">
  <line x1="560" y1="180" x2="850" y2="180" stroke-opacity="0.30"/>
  <line x1="640" y1="262" x2="900" y2="262" stroke-opacity="0.18"/>
</g>
<line x1="338" y1="908" x2="330" y2="330" stroke="#0E2A63" stroke-opacity="0.18" stroke-width="30" stroke-linecap="round" transform="translate(10,20)"/>
<g transform="translate(12, 350)" fill-opacity="0.18"><g transform="rotate(7 330 0)"><polygon points="330,-96 458,-79 458,79 330,96" fill="#0E2A63"/><polygon points="458,-79 568,-65 568,65 458,79" fill="#0E2A63"/><polygon points="568,-65 668,-52 668,52 568,65" fill="#0E2A63"/><polygon points="668,-52 752,-41 752,41 668,52" fill="#0E2A63"/><polygon points="752,-41 826,-32 826,32 752,41" fill="#0E2A63"/></g></g>
<line x1="330" y1="900" x2="330" y2="330" stroke="#FFFFFF" stroke-width="30" stroke-linecap="round"/>
<g transform="translate(0, 330)"><g transform="rotate(7 330 0)"><polygon points="330,-96 458,-79 458,79 330,96" fill="#FF8A3D"/><polygon points="458,-79 568,-65 568,65 458,79" fill="#F2F6FC"/><polygon points="568,-65 668,-52 668,52 568,65" fill="#FF8A3D"/><polygon points="668,-52 752,-41 752,41 668,52" fill="#F2F6FC"/><polygon points="752,-41 826,-32 826,32 752,41" fill="#FF8A3D"/></g></g>
</svg>